<svg width="43" height="43" viewBox="0 0 43 43" fill="none" xmlns="http://www.w3.org/2000/svg"><path fill-rule="evenodd" clip-rule="evenodd" d="M14.753 6.055a12.107 12.107 0 0 0-7.858 5.03 12.293 12.293 0 0 0-2.047 9.147c.795 4.55 3.851 9.024 8.844 12.942a38.571 38.571 0 0 0 6.526 4.167 38.829 38.829 0 0 0 4.726-6.172c3.361-5.392 4.718-10.65 3.924-15.19a12.233 12.233 0 0 0-5.025-7.901 12.041 12.041 0 0 0-9.09-2.023zm4.514 36.049a43.164 43.164 0 0 1-8.45-5.22C4.904 32.244 1.248 26.767.248 21.039A17.01 17.01 0 0 1 3.076 8.377c2.585-3.702 6.445-6.173 10.867-6.958a16.654 16.654 0 0 1 12.57 2.797c3.683 2.59 6.152 6.47 6.953 10.935 1 5.72-.58 12.127-4.562 18.515a43.67 43.67 0 0 1-6.206 7.853l-1.497 1.45-1.934-.865z" fill="#FFC4E9" style="mix-blend-mode:multiply"/><path fill-rule="evenodd" clip-rule="evenodd" d="M21.188 5.487a12.068 12.068 0 0 0-8.604 3.581 12.276 12.276 0 0 0-3.59 8.66c0 4.612 2.24 9.552 6.478 14.275a38.694 38.694 0 0 0 5.717 5.252 38.796 38.796 0 0 0 5.71-5.245c4.243-4.731 6.483-9.672 6.483-14.293a12.261 12.261 0 0 0-3.59-8.65 12.07 12.07 0 0 0-8.604-3.58zm.001 37.482l-1.724-1.167a43.381 43.381 0 0 1-7.462-6.648c-5.022-5.596-7.679-11.628-7.679-17.437.02-4.538 1.783-8.79 4.965-11.984C12.471 2.538 16.697.779 21.188.779c4.49 0 8.717 1.76 11.9 4.953a16.979 16.979 0 0 1 4.964 11.974c0 5.818-2.658 11.85-7.684 17.454a43.356 43.356 0 0 1-7.423 6.618l-1.756 1.191z" fill="#E27AFC" style="mix-blend-mode:multiply"/><path fill-rule="evenodd" clip-rule="evenodd" d="M27.634 6.055a12.04 12.04 0 0 0-9.09 2.023 12.229 12.229 0 0 0-5.025 7.9c-.794 4.542.562 9.799 3.923 15.191a38.803 38.803 0 0 0 4.727 6.172 38.59 38.59 0 0 0 6.526-4.167c4.993-3.918 8.048-8.391 8.843-12.942a12.293 12.293 0 0 0-2.046-9.146 12.107 12.107 0 0 0-7.858-5.031zm-6.448 36.914l-1.497-1.45a43.643 43.643 0 0 1-6.205-7.852C9.5 27.276 7.922 20.871 8.92 15.15c.801-4.466 3.27-8.346 6.953-10.935a16.653 16.653 0 0 1 12.57-2.797c4.422.785 8.281 3.256 10.867 6.958a17.01 17.01 0 0 1 2.83 12.662c-1.002 5.728-4.656 11.204-10.572 15.845a43.125 43.125 0 0 1-8.45 5.22l-1.933.865z" fill="#2091EF" style="mix-blend-mode:multiply"/></svg>