<svg width="136" height="43" viewBox="0 0 136 43" fill="none" xmlns="http://www.w3.org/2000/svg"><path fill-rule="evenodd" clip-rule="evenodd" d="M14.753 6.055a12.107 12.107 0 0 0-7.858 5.03 12.293 12.293 0 0 0-2.047 9.147c.795 4.55 3.851 9.024 8.844 12.942a38.571 38.571 0 0 0 6.526 4.167 38.829 38.829 0 0 0 4.726-6.172c3.361-5.392 4.718-10.65 3.924-15.19a12.233 12.233 0 0 0-5.025-7.901 12.041 12.041 0 0 0-9.09-2.023zm4.514 36.049a43.164 43.164 0 0 1-8.45-5.22C4.904 32.244 1.248 26.767.248 21.039A17.01 17.01 0 0 1 3.076 8.377c2.585-3.702 6.445-6.173 10.867-6.958a16.654 16.654 0 0 1 12.57 2.797c3.683 2.59 6.152 6.47 6.953 10.935 1 5.72-.58 12.127-4.562 18.515a43.67 43.67 0 0 1-6.206 7.853l-1.497 1.45-1.934-.865z" fill="#FFC4E9" style="mix-blend-mode:multiply"/><path fill-rule="evenodd" clip-rule="evenodd" d="M21.188 5.487a12.068 12.068 0 0 0-8.604 3.581 12.276 12.276 0 0 0-3.59 8.66c0 4.612 2.24 9.552 6.478 14.275a38.695 38.695 0 0 0 5.717 5.252 38.802 38.802 0 0 0 5.71-5.245c4.243-4.731 6.483-9.672 6.483-14.293a12.261 12.261 0 0 0-3.59-8.65 12.07 12.07 0 0 0-8.604-3.58zm.001 37.482l-1.724-1.167a43.381 43.381 0 0 1-7.462-6.648c-5.022-5.596-7.679-11.628-7.679-17.437.02-4.538 1.783-8.79 4.965-11.984C12.471 2.538 16.697.779 21.188.779c4.49 0 8.717 1.76 11.9 4.953a16.979 16.979 0 0 1 4.964 11.974c0 5.818-2.658 11.85-7.684 17.454a43.356 43.356 0 0 1-7.423 6.618l-1.756 1.191z" fill="#E27AFC" style="mix-blend-mode:multiply"/><path fill-rule="evenodd" clip-rule="evenodd" d="M27.634 6.055a12.04 12.04 0 0 0-9.09 2.023 12.229 12.229 0 0 0-5.025 7.9c-.794 4.542.562 9.799 3.923 15.191a38.803 38.803 0 0 0 4.727 6.172 38.59 38.59 0 0 0 6.526-4.167c4.993-3.918 8.048-8.391 8.843-12.942a12.293 12.293 0 0 0-2.046-9.146 12.107 12.107 0 0 0-7.858-5.031zm-6.448 36.914l-1.497-1.45a43.643 43.643 0 0 1-6.205-7.852C9.5 27.276 7.922 20.871 8.92 15.15c.801-4.466 3.27-8.346 6.953-10.935a16.653 16.653 0 0 1 12.57-2.797c4.422.785 8.281 3.256 10.867 6.958a17.01 17.01 0 0 1 2.83 12.662c-1.002 5.728-4.656 11.204-10.572 15.845a43.125 43.125 0 0 1-8.45 5.22l-1.933.865z" fill="#2091EF" style="mix-blend-mode:multiply"/><path fill-rule="evenodd" clip-rule="evenodd" d="M61.687 10.77v5.735c0 .258-.163.422-.418.422h-2.183c-.279 0-.441-.164-.441-.422v-5.314c0-1.615-.976-2.693-2.369-2.693-1.533 0-2.462 1.171-2.462 2.599v5.408c0 .258-.162.422-.417.422h-2.183c-.28 0-.442-.164-.442-.422V.422c0-.258.162-.422.442-.422h2.16c.278 0 .44.164.44.422v6.485c.65-.68 1.673-1.17 3.066-1.17 2.834 0 4.807 2.012 4.807 5.033zm10.869.561c0-1.545-1.161-2.81-2.717-2.81-1.532 0-2.717 1.265-2.717 2.81 0 1.57 1.184 2.81 2.717 2.81 1.556 0 2.717-1.24 2.717-2.81zm-8.5 0c0-3.184 2.578-5.595 5.783-5.595 3.205 0 5.782 2.411 5.782 5.595 0 3.184-2.577 5.596-5.782 5.596s-5.782-2.412-5.782-5.596zm14.934 1.405V8.31h-1.742c-.28 0-.418-.163-.418-.444v-1.71c0-.257.139-.42.418-.42h1.834V2.668c0-.257.14-.421.418-.421h2.09c.279 0 .442.164.442.421v3.067h3.53c.278 0 .441.164.441.421v1.71c0 .28-.163.444-.441.444h-3.53v4.12c0 1.265.789 1.733 1.88 1.733.605 0 1.046-.21 1.371-.35.255-.142.465-.095.58.163l.697 1.522c.117.257.047.42-.186.608-.232.164-1.277.82-3.158.82-2.624 0-4.226-1.499-4.226-4.191zm11.821-2.528h4.97l-.023-.07c-.186-1.148-1.092-1.967-2.3-1.967-1.346 0-2.323.726-2.647 2.037zm7.826 1.545c-.023.258-.163.421-.418.421H90.81c.348 1.264 1.532 2.177 3.158 2.177a3.99 3.99 0 0 0 2.485-.82c.232-.163.442-.14.58.118l.814 1.452c.139.234.115.444-.094.608-.72.562-2.02 1.217-4.11 1.217-3.39 0-5.876-2.434-5.876-5.595 0-3.137 2.3-5.595 5.575-5.595 3.227 0 5.317 2.388 5.317 5.62 0 .139 0 .257-.023.397zm2.532 4.753V.422c0-.258.163-.422.441-.422h2.183c.256 0 .418.164.418.422v16.084c0 .257-.162.42-.418.42h-2.183c-.278 0-.441-.163-.441-.42zM58.738 32.057c0-1.639-1.069-2.81-2.74-2.81-1.556 0-2.74 1.195-2.74 2.81 0 1.592 1.183 2.81 2.74 2.81 1.671 0 2.74-1.194 2.74-2.81zm2.856-5.173v9.856c0 3.137-2.09 5.478-5.852 5.478-2.183 0-3.646-.492-4.738-1.194-.232-.14-.255-.351-.116-.586l.86-1.475c.116-.233.325-.28.58-.164.86.445 1.997.797 3.205.797 1.811 0 3.019-1.054 3.019-2.459v-.842c-.79.796-1.858 1.358-3.228 1.358-2.95 0-5.133-2.412-5.133-5.596s2.253-5.596 5.203-5.596c1.602 0 2.81.68 3.646 1.593l.07-1.194c0-.257.185-.398.44-.398h1.626c.255 0 .418.141.418.422zm3.136 10.347V26.884c0-.259.163-.423.418-.423h2.183c.279 0 .441.164.441.423v10.347c0 .258-.162.422-.441.422h-2.183c-.279 0-.418-.164-.418-.422zm-.51-14.351c0-1.147.86-1.92 1.974-1.942 1.138 0 2.02.795 2.02 1.942 0 1.147-.882 1.943-2.02 1.943-1.115 0-1.974-.796-1.974-1.943zm7.755 14.351v-8.194h-1.58c-.277 0-.44-.163-.44-.444v-1.71c0-.258.163-.422.44-.422h1.58v-1.053c0-2.996 1.742-4.869 4.76-4.869 1.139 0 1.928.304 2.463.608.233.141.278.352.162.586l-.766 1.568c-.116.235-.325.282-.58.188a2.764 2.764 0 0 0-.93-.164c-1.045 0-2.067.632-2.067 2.247v.89h2.788c.255 0 .417.163.417.422v1.709c0 .28-.162.444-.417.444h-2.788v8.194c0 .258-.162.422-.418.422h-2.182c-.28 0-.442-.164-.442-.422zm9.475-3.769v-4.424h-1.74c-.28 0-.419-.163-.419-.445v-1.709c0-.257.139-.421.418-.421h1.834v-3.068c0-.257.14-.421.418-.421h2.091c.278 0 .44.164.44.421v3.068h3.531c.278 0 .442.164.442.421v1.71c0 .28-.164.444-.442.444h-3.53v4.12c0 1.264.79 1.732 1.88 1.732.605 0 1.046-.21 1.371-.35.256-.142.465-.095.58.163l.698 1.522c.116.257.046.42-.187.608-.232.164-1.277.82-3.158.82-2.624 0-4.226-1.5-4.226-4.191zm8.757-1.405c0-3.137 2.531-5.596 5.875-5.596 1.788 0 2.88.493 3.577.96.231.141.278.352.116.657l-.79 1.498c-.14.258-.371.28-.603.163-.442-.257-1.092-.491-1.952-.491-1.858 0-3.111 1.17-3.111 2.81 0 1.638 1.23 2.809 3.065 2.809.906 0 1.533-.211 2.02-.492.256-.14.442-.094.558.14l.813 1.57c.139.233.093.42-.14.584-.441.305-1.58.984-3.553.984-3.414 0-5.875-2.436-5.875-5.596zm19.833 0c0-1.639-1.068-2.81-2.74-2.81-1.556 0-2.74 1.195-2.74 2.81 0 1.592 1.184 2.81 2.74 2.81 1.672 0 2.763-1.194 2.74-2.81zm2.926-5.173v10.347c0 .258-.162.422-.441.422h-1.834c-.279 0-.442-.141-.465-.422l-.07-1.24c-.789.96-1.95 1.662-3.529 1.662-2.95 0-5.133-2.412-5.133-5.596s2.253-5.596 5.202-5.596c1.417 0 2.531.516 3.344 1.265l.07-.866c.023-.257.186-.398.441-.398h1.974c.279 0 .441.165.441.422zm10.172.07l-.163 2.153c-.023.305-.209.422-.488.352a2.29 2.29 0 0 0-.626-.07c-1.696 0-2.741 1.123-2.741 2.645v5.197c0 .258-.163.422-.418.422h-2.183c-.279 0-.441-.164-.441-.422V26.884c0-.257.162-.422.441-.422h1.672c.256 0 .418.165.442.422l.093 1.896c.371-1.312 1.695-2.318 3.529-2.318.186 0 .372 0 .535.024.255.023.371.21.348.468zm9.661 5.103c0-1.592-1.069-2.81-2.74-2.81-1.556 0-2.741 1.218-2.741 2.81 0 1.616 1.185 2.81 2.741 2.81 1.671 0 2.74-1.17 2.74-2.81zm2.902-10.91v16.084c0 .257-.162.421-.44.421h-1.626c-.255 0-.418-.14-.441-.421l-.07-1.194c-.836.937-2.043 1.616-3.646 1.616-2.95 0-5.225-2.412-5.225-5.596s2.182-5.596 5.132-5.596c1.417 0 2.531.586 3.298 1.429v-6.742c0-.258.139-.422.418-.422h2.16c.278 0 .44.164.44.422z" fill="#161616"/></svg>